<?xml version="1.0" encoding="utf-8"?><!-- Uploaded to: SVG Repo, www.svgrepo.com, Generator: SVG Repo Mixer Tools -->
<svg width="800px" height="800px" viewBox="0 0 24 24" fill="none" xmlns="http://www.w3.org/2000/svg">
<path fill-rule="evenodd" clip-rule="evenodd" d="M13.2751 19H9.15084C7.29737 18.9677 5.82006 17.401 5.85047 15.5V12C5.83357 10.4263 6.84799 9.03658 8.32502 8.61V8.15C8.27579 6.46276 9.56799 5.0533 11.213 5C12.8579 5.0533 14.1501 6.46276 14.1009 8.15V8.61C15.5779 9.03658 16.5924 10.4263 16.5755 12V15.5C16.6059 17.401 15.1286 18.9677 13.2751 19Z" stroke="#000000" stroke-width="1.5" stroke-linecap="round" stroke-linejoin="round"/>
<path d="M10.463 15.5C10.463 15.9142 10.7988 16.25 11.213 16.25C11.6272 16.25 11.963 15.9142 11.963 15.5H10.463ZM11.963 13.75C11.963 13.3358 11.6272 13 11.213 13C10.7988 13 10.463 13.3358 10.463 13.75H11.963ZM13.9039 9.33364C14.3035 9.44247 14.7157 9.2067 14.8246 8.80704C14.9334 8.40738 14.6976 7.99517 14.298 7.88634L13.9039 9.33364ZM13.2761 8.49999L13.2761 9.24999L13.2768 9.24999L13.2761 8.49999ZM9.15084 8.49999L9.15013 9.24999H9.15084V8.49999ZM8.12893 7.88634C7.72927 7.99517 7.49351 8.40738 7.60234 8.80704C7.71117 9.2067 8.12339 9.44247 8.52305 9.33364L8.12893 7.88634ZM11.963 15.5V13.75H10.463V15.5H11.963ZM14.298 7.88634C13.9645 7.79553 13.6207 7.74966 13.2754 7.74999L13.2768 9.24999C13.4883 9.24979 13.6991 9.27787 13.9039 9.33364L14.298 7.88634ZM13.2761 7.74999H9.15084V9.24999H13.2761V7.74999ZM9.15155 7.74999C8.80619 7.74966 8.46239 7.79553 8.12893 7.88634L8.52305 9.33364C8.72782 9.27787 8.9386 9.24979 9.15013 9.24999L9.15155 7.74999Z" fill="#000000"/>
</svg>