<?xml version="1.0" encoding="utf-8"?><!-- Uploaded to: SVG Repo, www.svgrepo.com, Generator: SVG Repo Mixer Tools -->
<svg width="800px" height="800px" viewBox="0 0 24 24" fill="none" xmlns="http://www.w3.org/2000/svg">
<path d="M9.34568 15.5C9.34568 15.9142 9.68147 16.25 10.0957 16.25C10.5099 16.25 10.8457 15.9142 10.8457 15.5H9.34568ZM10.8457 13.75C10.8457 13.3358 10.5099 13 10.0957 13C9.68147 13 9.34568 13.3358 9.34568 13.75H10.8457ZM12.1556 8.61C12.1556 9.02421 12.4914 9.36 12.9056 9.36C13.3198 9.36 13.6556 9.02421 13.6556 8.61H12.1556ZM12.9056 8.15H13.6556C13.6556 8.13967 13.6554 8.12933 13.655 8.11901L12.9056 8.15ZM15.7166 5L15.7522 4.25085C15.7285 4.24972 15.7048 4.24972 15.6811 4.25084L15.7166 5ZM18.5265 8.15L17.7772 8.119C17.7767 8.12932 17.7765 8.13966 17.7765 8.15H18.5265ZM17.7765 8.61C17.7765 9.02421 18.1123 9.36 18.5265 9.36C18.9407 9.36 19.2765 9.02421 19.2765 8.61H17.7765ZM12.9056 8.61L13.1265 7.89325C13.1203 7.89134 13.1141 7.88951 13.1078 7.88777L12.9056 8.61ZM12.1022 8.5L12.1022 9.25L12.103 9.25L12.1022 8.5ZM8.08816 8.5L8.08736 9.25H8.08816V8.5ZM7.28476 8.61L7.08257 7.88777C7.07626 7.88954 7.06996 7.89139 7.0637 7.89332L7.28476 8.61ZM4.87651 12L5.62664 12L5.62638 11.9859L4.87651 12ZM4.87651 15.5L5.62619 15.5219C5.6264 15.5146 5.62651 15.5073 5.62651 15.5H4.87651ZM8.08816 19L8.06452 19.7496C8.0724 19.7499 8.08028 19.75 8.08816 19.75V19ZM12.1032 19V19.75C12.1111 19.75 12.119 19.7499 12.1268 19.7496L12.1032 19ZM15.3149 15.5H14.5649C14.5649 15.5073 14.565 15.5146 14.5652 15.5219L15.3149 15.5ZM15.3149 12L14.5649 11.9859V12H15.3149ZM10.8457 15.5V13.75H9.34568V15.5H10.8457ZM13.6556 8.61V8.15H12.1556V8.61H13.6556ZM13.655 8.11901C13.6024 6.84853 14.5586 5.80558 15.752 5.74916L15.6811 4.25084C13.6286 4.34787 12.0711 6.12179 12.1563 8.18099L13.655 8.11901ZM15.6809 5.74915C16.874 5.80596 17.8297 6.84881 17.7772 8.119L19.2759 8.181C19.361 6.12226 17.8043 4.34855 15.7522 4.25085L15.6809 5.74915ZM17.7765 8.15V8.61H19.2765V8.15H17.7765ZM13.1078 7.88777C12.7801 7.79601 12.4416 7.74964 12.1014 7.75L12.103 9.25C12.3057 9.24978 12.5076 9.2774 12.7034 9.33223L13.1078 7.88777ZM12.1022 7.75H8.08816V9.25H12.1022V7.75ZM8.08896 7.75C7.74883 7.74964 7.41033 7.79601 7.08257 7.88777L7.48695 9.33223C7.6828 9.2774 7.88471 9.24978 8.08736 9.25L8.08896 7.75ZM7.0637 7.89332C5.28076 8.44327 4.09125 10.1348 4.12664 12.0141L5.62638 11.9859C5.60316 10.7531 6.38248 9.67318 7.50582 9.32668L7.0637 7.89332ZM4.12651 12V15.5H5.62651V12H4.12651ZM4.12683 15.4781C4.06062 17.7494 5.80466 19.6784 8.06452 19.7496L8.1118 18.2504C6.71393 18.2063 5.58304 17.0022 5.62619 15.5219L4.12683 15.4781ZM8.08816 19.75H12.1032V18.25H8.08816V19.75ZM12.1268 19.7496C14.3867 19.6784 16.1307 17.7494 16.0645 15.4781L14.5652 15.5219C14.6083 17.0022 13.4774 18.2063 12.0796 18.2504L12.1268 19.7496ZM16.0649 15.5V12H14.5649V15.5H16.0649ZM16.0647 12.0141C16.1 10.1344 14.9099 8.44275 13.1265 7.89325L12.6848 9.32675C13.8084 9.67296 14.5881 10.7529 14.565 11.9859L16.0647 12.0141Z" fill="#000000"/>
</svg>